<svg width="130" height="130" viewBox="0 0 130 130" fill="none" xmlns="http://www.w3.org/2000/svg">
<path fill-rule="evenodd" clip-rule="evenodd" d="M4.08268 5.84581C13.0129 66.9711 67.8584 96.6614 125.114 103.412C126.098 103.53 126.804 104.423 126.687 105.406C126.569 106.389 125.676 107.096 124.693 106.978C65.8333 100.041 9.71003 69.2002 0.530593 6.36228C0.385607 5.38362 1.06527 4.47293 2.04846 4.32794C3.02712 4.18296 3.9377 4.86262 4.08268 5.84581Z" fill="#007AFF"/>
<path fill-rule="evenodd" clip-rule="evenodd" d="M123.829 105.069C121.283 103.207 118.061 100.906 117.703 100.634C108.003 93.2667 99.9652 84.7896 92.888 74.8444C92.3126 74.0379 92.503 72.9143 93.3095 72.3389C94.116 71.7635 95.2395 71.9538 95.8149 72.7603C102.675 82.4064 110.468 90.6298 119.878 97.7749C120.426 98.1918 127.671 103.361 129.058 104.517C129.628 104.988 129.805 105.432 129.837 105.541C130.027 106.112 129.914 106.56 129.76 106.886C129.583 107.253 129.144 107.788 128.292 108.06C127.399 108.341 125.415 108.468 124.916 108.54C117.4 109.655 108.913 110.244 101.188 112.382C93.8213 114.421 87.1385 117.874 82.8523 124.792C82.3313 125.635 81.2213 125.893 80.3785 125.372C79.5358 124.851 79.2774 123.741 79.7985 122.898C84.5921 115.164 91.9956 111.2 100.228 108.921C107.908 106.796 116.317 106.152 123.829 105.069Z" fill="#007AFF"/>
</svg>
